#!OML:ASF I:\Actors\actors\Patient Classification 1\Patient 1\Session 1\Subject1.ASF
:FULLY-SPECIFIED
:DEGREES
954
root 1.06483 17.4643 9.01121 7.14738 -0.308462 -7.82171
lowerback -1.50195 3.39186 6.37212
upperback -6.95127 4.70003 0.14521
thorax -5.9259 1.9984 -3.55188
lowerneck -9.18867 -9.84611 -6.4463
upperneck 21.2428 -15.2318 11.0643
head 9.58558 -6.61519 3.04878
rclavicle 3.00165e-014 -1.82882e-014
rhumerus -11.1537 -16.6307 -77.4016
rradius 80.7904
rwrist -43.8354
rhand -1.08733 -56.5469
rfingers 7.12502
rthumb 24.5485 -444.993
lclavicle 3.00165e-014 -1.82882e-014
lhumerus -59.1709 24.5457 63.3084
lradius 102.728
lwrist 57.4917
lhand -41.0212 4.21733
lfingers 7.12502
lthumb -13.9521 33.7292
rfemur -3.83123 23.0047 23.1627
rtibia 5.39687
rfoot -13.4586 -26.0201
rtoes 4.06051
lfemur 5.10146 -40.213 -14.8693
ltibia -4.31594
lfoot -16.029 48.4113
ltoes 9.46484
955
root 1.06338 17.4654 9.01251 7.14929 -0.256747 -7.84469
lowerback -1.4676 3.39978 6.39214
upperback -6.92923 4.71405 0.167675
thorax -5.92101 2.0056 -3.54126
lowerneck -9.3448 -9.87649 -6.45532
upperneck 21.3463 -15.2718 11.0239
head 9.65281 -6.62733 3.02267
rclavicle -6.79844e-014 -1.59028e-014
rhumerus -11.3308 -17.1729 -77.4754
rradius 79.5116
rwrist -43.1945
rhand -0.688981 -56.765
rfingers 7.12502
rthumb 24.9303 -445.159
lclavicle -6.79844e-014 -1.59028e-014
lhumerus -59.1563 24.4192 63.3814
lradius 102.742
lwrist 57.5754
lhand -41.0271 4.47866
lfingers 7.12502
lthumb -13.9577 33.9901
rfemur -3.85285 22.9503 23.1942
rtibia 5.43957
rfoot -13.4326 -26.0031
rtoes 3.64029
lfemur 5.0665 -40.1709 -14.7992
ltibia -4.32471
lfoot -15.9441 48.3502
ltoes 9.38372
956
root 1.05471 17.4728 9.02089 6.90653 -0.0247225 -7.8331
lowerback -1.32154 3.35626 6.30705
upperback -6.82521 4.66268 0.20163
thorax -5.90639 1.9882 -3.46386
lowerneck -9.43432 -9.89926 -6.50495
upperneck 21.3885 -15.3048 11.054
head 9.69488 -6.63754 3.03125
rclavicle 4.40308e-014 -1.74931e-014
rhumerus -11.5231 -17.7443 -77.4967
rradius 78.3039
rwrist -42.3158
rhand -0.404754 -57.058
rfingers 7.12502
rthumb 25.2026 -445.414
lclavicle 4.40308e-014 -1.74931e-014
lhumerus -59.0876 24.2669 63.511
lradius 102.738
lwrist 57.6597
lhand -41.0328 4.64258
lfingers 7.12502
lthumb -13.9632 34.1537
rfemur -3.35695 23.2711 23.4359
rtibia 5.27247
rfoot -13.5151 -26.5293
rtoes 3.61141
lfemur 5.38176 -40.119 -14.9217
ltibia -4.40871
lfoot -15.6548 48.12
ltoes 9.0764
957
root 1.05059 17.4759 9.02614 6.80435 0.150506 -7.84796
lowerback -1.27366 3.34728 6.31393
upperback -6.76609 4.65363 0.232106
thorax -5.87332 1.98665 -3.43667
lowerneck -9.52225 -9.91938 -6.61299
upperneck 21.4432 -15.33 11.1038
head 9.74694 -6.64627 3.05682
rclavicle 8.44835e-015 -1.27222e-014
rhumerus -11.6687 -18.1302 -77.5106
rradius 77.1844
rwrist -42.2447
rhand -0.613468 -56.4469
rfingers 7.12502
rthumb 25.0026 -444.831
lclavicle 8.44835e-015 -1.27222e-014
lhumerus -59.017 24.1606 63.6735
lradius 102.728
lwrist 57.7394
lhand -41.0326 4.57116
lfingers 7.12502
lthumb -13.963 34.0823
rfemur -3.11138 23.4877 23.5878
rtibia 5.1852
rfoot -13.6383 -26.8841
rtoes 4.00197
lfemur 5.45478 -40.0214 -14.8937
ltibia -4.43418
lfoot -15.409 47.9002
ltoes 8.76034
958
root 1.05161 17.4756 9.02808 6.82279 0.30389 -7.84512
lowerback -1.29681 3.3429 6.36023
upperback -6.74632 4.6472 0.250161
thorax -5.8381 1.98333 -3.44094
lowerneck -9.64107 -9.92787 -6.62634
upperneck 21.5333 -15.3317 11.0451
head 9.79732 -6.64484 3.03256
rclavicle 4.41302e-014 1.59028e-015
rhumerus -11.7179 -18.4058 -77.526
rradius 76.3451
rwrist -42.7022
rhand -1.01113 -56.1813
rfingers 7.12502
rthumb 24.6215 -444.618
lclavicle 4.41302e-014 1.59028e-015
lhumerus -58.9481 24.0838 63.8301
lradius 102.705
lwrist 57.7156
lhand -41.0424 4.71283
lfingers 7.12502
lthumb -13.9725 34.2233
rfemur -3.09418 23.4504 23.5836
rtibia 5.15479
rfoot -13.7387 -26.954
rtoes 4.41865
lfemur 5.32548 -39.9602 -14.8071
ltibia -4.39258
lfoot -15.1966 47.7287
ltoes 8.42352
959
root 1.05409 17.4751 9.03006 6.8581 0.518337 -7.80765
lowerback -1.3501 3.29289 6.38567
upperback -6.73128 4.57701 0.26792
thorax -5.79857 1.9495 -3.43098
lowerneck -9.73723 -9.91269 -6.5783
upperneck 21.5959 -15.2947 10.935
head 9.81988 -6.62808 2.98802
rclavicle -6.65929e-015 1.51076e-014
rhumerus -11.6824 -18.6107 -77.574
rradius 75.8409
rwrist -43.0554
rhand -1.82058 -55.7725
rfingers 7.12502
rthumb 23.8455 -444.312
lclavicle -6.65929e-015 1.51076e-014
lhumerus -58.8977 24.059 63.9542
lradius 102.685
lwrist 57.6092
lhand -41.1465 4.98079
lfingers 7.12502
lthumb -14.0728 34.4843
rfemur -3.07791 23.3745 23.5265
rtibia 5.0951
rfoot -13.8352 -27.0395
rtoes 4.74057
lfemur 5.13758 -39.9296 -14.729
ltibia -4.32836
lfoot -14.9384 47.515
ltoes 8.04041
960
root 1.05621 17.4749 9.03191 6.89219 0.621903 -7.74982
lowerback -1.37222 3.26422 6.37878
upperback -6.71103 4.53701 0.290742
thorax -5.77056 1.93214 -3.40043
lowerneck -9.83373 -9.89834 -6.58473
upperneck 21.6063 -15.2481 10.8496
head 9.82979 -6.61079 2.96172
rclavicle 5.46658e-015 -1.74931e-014
rhumerus -11.6138 -18.6729 -77.6532
rradius 75.6693
rwrist -43.0554
rhand -3.09107 -54.2624
rfingers 7.12502
rthumb 22.6266 -442.956
lclavicle 5.46658e-015 -1.74931e-014
lhumerus -58.8576 24.0717 64.074
lradius 102.714
lwrist 57.5332
lhand -41.4999 5.05766
lfingers 7.12502
lthumb -14.4133 34.5372
rfemur -3.07768 23.3852 23.444
rtibia 5.05913
rfoot -13.9611 -27.1073
rtoes 5.08895
lfemur 5.04869 -40.0119 -14.7509
ltibia -4.29329
lfoot -14.8603 47.4839
ltoes 7.93644
961
root 1.05863 17.4755 9.03337 6.90698 0.616325 -7.68717
lowerback -1.34107 3.27716 6.3686
upperback -6.68753 4.55635 0.307487
thorax -5.76316 1.94351 -3.3789
lowerneck -9.89579 -9.8886 -6.62831
upperneck 21.5828 -15.2086 10.8065
head 9.82879 -6.59816 2.95638
rclavicle -2.40529e-014 -2.38542e-014
rhumerus -11.5794 -18.5563 -77.6901
rradius 75.8594
rwrist -42.4813
rhand -4.14565 -54.0252
rfingers 7.12502
rthumb 21.6141 -442.839
lclavicle -2.40529e-014 -2.38542e-014
lhumerus -58.8205 24.0458 64.2157
lradius 102.764
lwrist 57.4293
lhand -42.0182 4.88697
lfingers 7.12502
lthumb -14.9127 34.3302
rfemur -3.08001 23.4013 23.3534
rtibia 5.04571
rfoot -14.0002 -27.1047
rtoes 5.33867
lfemur 5.06423 -40.1198 -14.87
ltibia -4.26741
lfoot -14.9847 47.5738
ltoes 8.08324
962
root 1.06179 17.476 9.0345 6.9251 0.648258 -7.63693
lowerback -1.32259 3.26511 6.38237
upperback -6.66259 4.54231 0.337296
thorax -5.74998 1.93761 -3.3555
lowerneck -9.87049 -9.84388 -6.7196
upperneck 21.5253 -15.1264 10.8329
head 9.80493 -6.56759 2.99298
rclavicle -2.65874e-014 5.1684e-015
rhumerus -11.6151 -18.1127 -77.6774
rradius 76.5019
rwrist -41.393
rhand -4.37077 -56.1191
rfingers 7.12502
rthumb 21.3979 -444.957
lclavicle -2.65874e-014 5.1684e-015
lhumerus -58.8163 24.059 64.3364
lradius 102.773
lwrist 57.2727
lhand -42.2127 4.77451
lfingers 7.12502
lthumb -15.1001 34.2037
rfemur -3.08352 23.3534 23.2753
rtibia 5.01412
rfoot -13.9529 -27.0969
rtoes 5.3821
lfemur 5.01604 -40.0893 -14.9274
ltibia -4.2225
lfoot -15.0887 47.5099
ltoes 8.21016
963
root 1.06398 17.4765 9.03483 6.94024 0.705996 -7.59865
lowerback -1.30087 3.22041 6.3962
upperback -6.63312 4.4853 0.381215
thorax -5.73928 1.91071 -3.31667
lowerneck -9.81794 -9.76183 -6.87427
upperneck 21.4807 -15.0076 10.9593
head 9.79064 -6.51573 3.08048
rclavicle 4.25399e-014 -1.03368e-014
rhumerus -11.735 -17.2575 -77.656
rradius 77.628
rwrist -39.8093
rhand -3.95389 -58.5234
rfingers 7.12502
rthumb 21.7982 -447.316
lclavicle 4.25399e-014 -1.03368e-014
lhumerus -58.8399 24.1631 64.3958
lradius 102.773
lwrist 57.1429
lhand -42.0363 5.01453
lfingers 7.12502
lthumb -14.9301 34.4564
rfemur -3.07435 23.354 23.2258
rtibia 4.97395
rfoot -13.9549 -27.1593
rtoes 5.31925
lfemur 4.94583 -40.0328 -14.9341
ltibia -4.20487
lfoot -14.8897 47.4332
ltoes 7.97606
964
root 1.06568 17.4774 9.03491 6.94972 0.771424 -7.56554
lowerback -1.24552 3.22717 6.46072
upperback -6.63656 4.49928 0.353723
thorax -5.76716 1.91232 -3.38493
lowerneck -9.73619 -9.76368 -6.9245
upperneck 21.4774 -15.027 11.0532
head 9.78851 -6.52266 3.12178
rclavicle 2.5842e-015 -7.95139e-016
rhumerus -12.1514 -16.2054 -77.5516
rradius 79.1991
rwrist -37.5629
rhand -3.8571 -58.8529
rfingers 7.12502
rthumb 21.8912 -447.634
lclavicle 2.5842e-015 -7.95139e-016
lhumerus -58.7836 24.0355 64.485
lradius 102.78
lwrist 57.0642
lhand -41.8656 5.34673
lfingers 7.12502
lthumb -14.7657 34.8008
rfemur -3.04874 23.4265 23.1925
rtibia 4.93992
rfoot -14.0032 -27.2843
rtoes 5.37315
lfemur 4.88691 -40.024 -14.9369
ltibia -4.19928
lfoot -14.5865 47.4001
ltoes 7.59351
965
root 1.06746 17.4786 9.03474 6.97145 0.844114 -7.58397
lowerback -1.16899 3.26865 6.60917
upperback -6.65636 4.56326 0.303203
thorax -5.81252 1.93266 -3.52659
lowerneck -9.68145 -9.81245 -6.79903
upperneck 21.4543 -15.095 10.9624
head 9.75876 -6.55623 3.06394
rclavicle -1.81391e-014 -7.15625e-015
rhumerus -12.8468 -14.9176 -77.361
rradius 81.1613
rwrist -34.6364
rhand -4.59449 -57.8447
rfingers 7.12502
rthumb 21.183 -446.707
lclavicle -1.81391e-014 -7.15625e-015
lhumerus -58.6454 23.7366 64.6401
lradius 102.746
lwrist 56.8928
lhand -41.7774 5.61298
lfingers 7.12502
lthumb -14.6807 35.0732
rfemur -3.06729 23.478 23.2072
rtibia 4.94306
rfoot -14.0441 -27.3892
rtoes 5.67926
lfemur 4.79231 -40.0124 -14.8534
ltibia -4.17719
lfoot -14.5123 47.3169
ltoes 7.4556
966
root 1.06695 17.4803 9.03453 6.98683 0.849828 -7.64033
lowerback -1.07956 3.27557 6.7042
upperback -6.62963 4.58276 0.337885
thorax -5.83 1.93808 -3.54828
lowerneck -9.71643 -9.77025 -6.69014
upperneck 21.3762 -15.0059 10.8224
head 9.70712 -6.5215 3.0104
rclavicle 1.48592e-014 -5.1684e-015
rhumerus -13.5559 -13.1838 -77.1354
rradius 83.4037
rwrist -31.0903
rhand -5.34819 -56.5894
rfingers 7.12502
rthumb 20.4588 -445.532
lclavicle 1.48592e-014 -5.1684e-015
lhumerus -58.5257 23.6524 64.8002
lradius 102.708
lwrist 56.5962
lhand -41.6381 5.89547
lfingers 7.12502
lthumb -14.5465 35.3655
rfemur -3.11243 23.539 23.2745
rtibia 4.98745
rfoot -14.0527 -27.4495
rtoes 5.95749
lfemur 4.7797 -40.0419 -14.7704
ltibia -4.19887
lfoot -14.5386 47.3359
ltoes 7.3992
967
root 1.0642 17.482 9.03622 7.00946 0.810222 -7.63603
lowerback -1.03013 3.26791 6.65348
upperback -6.59276 4.5764 0.395172
thorax -5.82715 1.94009 -3.46239
lowerneck -9.69445 -9.69408 -6.6795
upperneck 21.2415 -14.8699 10.7798
head 9.63683 -6.4675 3.01509
rclavicle -3.69739e-014 2.5842e-014
rhumerus -14.3716 -11.1703 -76.8527
rradius 85.8086
rwrist -27.1137
rhand -4.91528 -53.8478
rfingers 7.12502
rthumb 20.8748 -442.745
lclavicle -3.69739e-014 2.5842e-014
lhumerus -58.4654 23.6715 64.9388
lradius 102.701
lwrist 56.3276
lhand -41.0543 6.39616
lfingers 7.12502
lthumb -13.9839 35.9058
rfemur -3.1471 23.5853 23.275
rtibia 5.02557
rfoot -14.0821 -27.4439
rtoes 6.00096
lfemur 4.8549 -40.1782 -14.8208
ltibia -4.25741
lfoot -14.7183 47.5127
ltoes 7.58761
